<svg xmlns="http://www.w3.org/2000/svg" width="27" height="18" viewBox="0 0 27 18">
    <path fill="#7FF20B" fill-rule="evenodd" d="M21.502 0A5 5 0 0 1 26.5 4.99v8.02c0 2.756-2.24 4.99-4.998 4.99H5.498A5 5 0 0 1 .5 13.01V4.99C.5 2.234 2.74 0 5.498 0h16.004zM10.486 3.176l-.126.007c-.58.059-1.035.52-1.093 1.1l-.006.126v8.653a1.23 1.23 0 0 0 1.1 1.226l.125.006.125-.006a1.225 1.225 0 0 0 1.093-1.1l.006-.126V4.409c0-.681-.548-1.233-1.224-1.233zm5.51 0l-.126.007a1.226 1.226 0 0 0-1.098 1.226v8.653c0 .68.548 1.232 1.224 1.232l.126-.006a1.226 1.226 0 0 0 1.099-1.226V4.409c0-.681-.548-1.233-1.225-1.233z" opacity=".65"/>
</svg>
